<svg width="35" height="47" viewBox="0 0 35 47" fill="none" xmlns="http://www.w3.org/2000/svg">
<path d="M34.025 46.2671H1.06899C0.779897 40.2926 4.82709 29.5 17.547 29.5C30.556 29.5 34.3141 41.0635 34.025 46.2671Z" fill="#F89DA5"/>
<path d="M32.6643 15.58L17.4318 25.2856C12.2218 22.0504 1.93111 15.8241 0.609749 14.1753C-0.541252 12.739 -0.317449 7.79001 3.5238 6.76833C6.5968 5.95098 9.39605 9.067 10.4116 10.7272L13.0607 14.1753V0H21.9353V14.1753C22.2885 13.707 23.2599 12.3618 24.3195 10.7272C25.6441 8.6839 27.4985 6.64062 30.0152 6.76833C32.5318 6.89603 33.9889 7.91767 34.6511 10.7272C35.181 12.9748 33.7964 14.8932 32.6643 15.58Z" fill="#FFEDEF"/>
</svg>
