<svg width="173" height="42" viewBox="0 0 173 42" fill="none" xmlns="http://www.w3.org/2000/svg"><path d="M10.488 29.4h3.23V10.85H9.02c-4.724 0-7.206 2.43-7.206 6.006 0 2.855 1.36 4.537 3.79 6.272l-4.217 6.271h3.496L9.58 22.38l-1.628-1.094c-1.975-1.334-2.936-2.375-2.936-4.617 0-1.975 1.388-3.31 4.03-3.31h1.441V29.4zm42.409-.908v-2.589c-.988.667-2.642 1.255-4.19 1.255-2.322 0-3.203-1.095-3.336-3.337h7.66v-1.68c0-4.671-2.056-6.433-5.232-6.433-3.87 0-5.711 2.963-5.711 7.02 0 4.67 2.295 6.938 6.352 6.938 2.028 0 3.523-.534 4.457-1.174zm19.856 1.174c1.468 0 2.509-.267 3.283-.827V26.25c-.8.56-1.762.908-3.096.908-2.269 0-3.203-1.762-3.203-4.538 0-2.909 1.148-4.403 3.23-4.403 1.227 0 2.428.427 3.069.827V16.35c-.667-.374-1.842-.64-3.416-.64-4.057 0-6.165 2.908-6.165 6.992 0 4.483 2.055 6.965 6.298 6.965zM23.806 15.975v5.311h-4.243v-5.311h-3.176v13.424h3.176v-5.604h4.243v5.604h3.176V15.975h-3.176zm17.508 10.916h-1.415V15.975h-9.26v1.148c0 3.282-.214 7.526-1.335 9.768h-.987v5.578h2.935v-3.07h7.126v3.07h2.936V26.89zm21.724 2.508h3.603l-5.097-7.232 4.484-6.192h-3.203l-4.484 6.192v-6.192h-3.176v13.424h3.176v-6.592l4.697 6.592zM47.746 18.217c1.575 0 2.055 1.308 2.055 2.989v.267h-4.43c.08-2.135.854-3.256 2.375-3.256zM36.723 26.89H32.24c.88-2.029 1.12-5.685 1.12-8.007v-.4h3.363v8.407z" fill="#000"/><path d="M105.191 20.21c0-6.843-5.548-12.39-12.391-12.39-6.844 0-12.391 5.547-12.391 12.39 0 6.844 5.547 12.392 12.39 12.392 6.844 0 12.392-5.548 12.392-12.392z" fill="#00ADFF"/><path d="M93.296 20.422c1.047-5.516 1.792-6.472 4.076-6.295 1.787.138 3.864 2.717 1.989 8.288-1.806 5.37-5.79 6.324-8.686 4.608-2.099-1.245-3.754-3.934-4.38-5.418-.987-2.332-1.505-4.88-.207-6.271 1.063-1.14 2.284-1.689 4.587.929 2.303 2.617 2.621 4.159 2.621 4.159z" fill="#fff"/><path d="M108.108 26.464v2.935s.454.267 1.335.267c3.149 0 4.03-2.588 4.19-9.367l.187-6.94h4.537V29.4h3.229V10.851h-10.675l-.241 9.5c-.106 4.511-.347 6.353-1.654 6.353-.641 0-.908-.24-.908-.24zM134.298 20.245c0-3.256-1.654-4.484-5.017-4.484-2.109 0-3.763.668-4.724 1.228v2.642c.854-.64 2.722-1.334 4.35-1.334 1.521 0 2.215.534 2.215 1.975v.747h-.507c-4.857 0-7.019 1.602-7.019 4.324 0 2.722 1.655 4.243 4.11 4.243 1.868 0 2.669-.614 3.283-1.254h.133c.027.347.134.8.24 1.067h3.096a34.028 34.028 0 01-.16-3.282v-5.872zm-3.176 5.952c-.4.587-1.147 1.067-2.268 1.067-1.335 0-2.002-.8-2.002-2.001 0-1.575 1.094-2.135 3.817-2.135h.453v3.069zM142.136 29.4c3.149 0 5.018-1.335 5.018-3.897 0-1.762-1.068-2.776-2.856-3.096 1.441-.4 2.349-1.415 2.349-3.016 0-2.295-1.522-3.416-4.457-3.416h-5.338v13.424h5.284zm-.4-11.023c1.147 0 1.788.48 1.788 1.495 0 .934-.694 1.494-1.895 1.494h-1.601v-2.989h1.708zm.053 5.311c1.361 0 2.082.48 2.082 1.601 0 1.228-.801 1.708-2.082 1.708h-1.761v-3.309h1.761zM157.157 29.4h3.603l-5.097-7.233 4.483-6.192h-3.202l-4.484 6.192v-6.192h-3.176v13.424h3.176v-6.592l4.697 6.592zM171.569 20.245c0-3.256-1.655-4.484-5.018-4.484-2.108 0-3.763.668-4.724 1.228v2.642c.854-.64 2.722-1.334 4.35-1.334 1.522 0 2.216.534 2.216 1.975v.747h-.507c-4.858 0-7.02 1.602-7.02 4.324 0 2.722 1.655 4.243 4.11 4.243 1.869 0 2.669-.614 3.283-1.254h.134c.026.347.133.8.24 1.067h3.096a33.71 33.71 0 01-.16-3.282v-5.872zm-3.176 5.952c-.401.587-1.148 1.067-2.269 1.067-1.334 0-2.002-.8-2.002-2.001 0-1.575 1.095-2.135 3.817-2.135h.454v3.069z" fill="#000"/></svg>