<svg width="120" height="120" viewBox="0 0 120 120" fill="none" xmlns="http://www.w3.org/2000/svg">
<rect width="120" height="120" rx="60" fill="#DA294A" fill-opacity="0.1"/>
<path d="M93.8579 55.0377L89.0766 49.4419C88.1912 48.3794 87.4475 46.396 87.4475 44.9794V38.9585C87.4475 35.2044 84.3662 32.1231 80.612 32.1231H74.5912C73.1745 32.1231 71.1558 31.3794 70.0933 30.4939L64.4975 25.7127C62.0537 23.6231 58.0516 23.6231 55.6079 25.7127L49.9412 30.4939C48.8787 31.3794 46.8954 32.1231 45.4787 32.1231H39.3516C35.5975 32.1231 32.5162 35.2044 32.5162 38.9585V44.9794C32.5162 46.3606 31.8079 48.3439 30.9225 49.4064L26.1412 55.0377C24.087 57.5169 24.087 61.4835 26.1412 63.8919L30.9225 69.5231C31.8079 70.5502 32.5162 72.5689 32.5162 73.9502V80.0065C32.5162 83.7606 35.5975 86.8419 39.3516 86.8419H45.5141C46.8954 86.8419 48.9141 87.5856 49.9766 88.471L55.5725 93.2523C58.0162 95.3419 62.0183 95.3419 64.462 93.2523L70.0579 88.471C71.1204 87.5856 73.1037 86.8419 74.5204 86.8419H80.5412C84.2954 86.8419 87.3766 83.7606 87.3766 80.0065V73.9856C87.3766 72.5689 88.1204 70.5856 89.0058 69.5231L93.787 63.9273C95.9475 61.5189 95.9475 57.5169 93.8579 55.0377ZM57.3433 45.7939C57.3433 44.3419 58.5475 43.1377 59.9995 43.1377C61.4516 43.1377 62.6558 44.3419 62.6558 45.7939V62.9002C62.6558 64.3523 61.4516 65.5564 59.9995 65.5564C58.5475 65.5564 57.3433 64.3523 57.3433 62.9002V45.7939ZM59.9995 76.7481C58.0516 76.7481 56.4579 75.1544 56.4579 73.2064C56.4579 71.2585 58.0162 69.6648 59.9995 69.6648C61.9475 69.6648 63.5412 71.2585 63.5412 73.2064C63.5412 75.1544 61.9829 76.7481 59.9995 76.7481Z" fill="#DA294A"/>
</svg>
