<svg width="120" height="120" viewBox="0 0 120 120" fill="none" xmlns="http://www.w3.org/2000/svg">
<rect width="120" height="120" rx="60" fill="#39B26F" fill-opacity="0.1"/>
<path d="M93.8584 55.0372L89.0417 49.4414C88.1209 48.3789 87.3771 46.3956 87.3771 44.9789V38.9581C87.3771 35.2039 84.2959 32.1227 80.5417 32.1227H74.5209C73.1396 32.1227 71.1209 31.3789 70.0584 30.4581L64.4625 25.6414C62.0188 23.5518 58.0167 23.5518 55.5375 25.6414L49.9771 30.4935C48.9146 31.3789 46.8959 32.1227 45.5146 32.1227H39.3875C35.6334 32.1227 32.5521 35.2039 32.5521 38.9581V45.0143C32.5521 46.3956 31.8084 48.3789 30.9229 49.4414L26.1417 55.0727C24.0875 57.5164 24.0875 61.4831 26.1417 63.9268L30.9229 69.5581C31.8084 70.6206 32.5521 72.6039 32.5521 73.9852V80.0414C32.5521 83.7956 35.6334 86.8768 39.3875 86.8768H45.5146C46.8959 86.8768 48.9146 87.6206 49.9771 88.5414L55.5729 93.3581C58.0167 95.4477 62.0188 95.4477 64.4979 93.3581L70.0938 88.5414C71.1563 87.6206 73.1396 86.8768 74.5563 86.8768H80.5771C84.3313 86.8768 87.4125 83.7956 87.4125 80.0414V74.0206C87.4125 72.6393 88.1563 70.6206 89.0771 69.5581L93.8938 63.9622C95.9479 61.5185 95.9479 57.481 93.8584 55.0372ZM74.7334 52.806L57.6271 69.9122C57.1313 70.4081 56.4584 70.6914 55.75 70.6914C55.0417 70.6914 54.3688 70.4081 53.8729 69.9122L45.3021 61.3414C44.275 60.3143 44.275 58.6143 45.3021 57.5872C46.3292 56.5602 48.0292 56.5602 49.0563 57.5872L55.75 64.281L70.9792 49.0518C72.0063 48.0247 73.7063 48.0247 74.7334 49.0518C75.7604 50.0789 75.7604 51.7789 74.7334 52.806Z" fill="#39B26F"/>
</svg>
